<svg xmlns="http://www.w3.org/2000/svg" viewBox="0 0 100 100" enable-background="new 0 0 100 100"><switch><g><circle fill="#ff2c2c" cx="50" cy="50" r="50"/><path opacity=".7" fill="#ba1a1a" d="m67.55 53l-29.703-14.86-15.454-17.03-21.921 21.986c-.309 2.25-.473 4.558-.473 6.892 0 26.2 20.16 47.7 45.809 49.829l33.693-33.681-6.129-.608 12.318-12.528h-18.14"/><g><path fill="#e09e63" d="m73.856 64.41l-4.756 3.473-.02-.018-.04.066-.07.049.018.017-3.468 4.753 1.73 5.65 6.07-6.07.12-.11 6.07-6.07z"/><g><path fill="#3d3030" d="m43.26 54.41l1.89 21.01 9.27 9.28 6.303-12.826z"/><path fill="#564646" d="m55.4 42.27l21.01 1.89 9.28 9.27-12.826 6.303z"/></g><g><path fill="#e2d5c9" d="m32.29 23.61l-5.381 2.308-2.315 5.368c1.915 5.812 5.181 12.615 10.721 18.16l28.331 26.04 6.414-6.414 6.414-6.414-26.04-28.331c-5.536-5.535-12.335-8.797-18.14-10.712"/><path fill="#f2eae4" d="m32.29 23.61l-5.38 2.308 43.15 43.15 6.414-6.414-26.04-28.331c-5.536-5.536-12.335-8.798-18.14-10.713"/></g><path fill="#3d3030" d="m50.42 49.44c.193 1.359.879 4.544 3.172 6.837l14.628 14.628 1.833-1.833 1.833-1.833-14.629-14.627c-2.293-2.293-5.48-2.978-6.837-3.172"/><circle fill="#c6b3a5" cx="44.17" cy="43.18" r="6.162"/><circle fill="#564646" cx="44.17" cy="43.18" r="4.748"/><g><path fill="#c6b3a5" d="m28.542 40.38l12.821-12.821c-.497-.277-.995-.543-1.493-.797l-12.13 12.12c.255.497.521.995.798 1.493"/><path fill="#c6b3a5" d="m44.22 29.28c-.465-.307-.933-.603-1.403-.888l-13.428 13.428c.285.47.581.938.888 1.403l13.943-13.943"/></g><g><path fill="#3d3030" d="m24.592 31.29c1.627-1.653 5.347-5.348 7.696-7.676-4.117-1.357-7.737-2.038-10.06-2.37.328 2.321 1.01 5.936 2.362 10.05"/><path fill="#564646" d="m32.29 23.61c-2.178-.718-4.218-1.247-5.999-1.635-.013-.003-.026-.006-.038-.008-.094-.02-.188-.041-.28-.06-.015-.003-.029-.006-.044-.009-.38-.08-.746-.154-1.1-.222-.03-.006-.059-.011-.089-.017-.067-.013-.133-.025-.2-.038-.038-.007-.076-.014-.114-.021-.061-.011-.122-.022-.182-.033-.043-.008-.085-.015-.128-.023-.055-.01-.111-.02-.166-.03-.051-.009-.101-.018-.151-.026-.07-.012-.139-.024-.208-.036-.066-.011-.132-.022-.197-.033-.039-.006-.077-.013-.115-.019-.056-.009-.111-.018-.166-.027-.038-.006-.075-.012-.112-.018-.055-.009-.11-.017-.164-.026-.035-.005-.069-.011-.103-.016-.058-.009-.116-.018-.173-.026-.028-.004-.055-.008-.083-.012-.084-.012-.166-.024-.247-.036l6.201 6.201c1.349-1.342 2.755-2.737 3.858-3.83"/></g><path fill="#564646" d="m70 66.03l.158-.529-12.896-12.896c-2.293-2.293-5.48-2.977-6.837-3.172l14.994 14.994 4.581 1.603"/><path fill="#705d5d" d="m60.781 59.79c-.217.95-.551 3.114.532 4.197l6.912 6.912 1.833-1.833 1.833-1.833-6.912-6.912c-1.085-1.082-3.251-.745-4.198-.531"/></g></g></switch></svg>